<?xml version="1.0" encoding="UTF-8" standalone="no"?>
<!-- Created with Inkscape (http://www.inkscape.org/) -->

<svg
   version="1.1"
   id="svg2"
   xml:space="preserve"
   width="24in"
   height="18in"
   viewBox="0 0 2304 1728"
   sodipodi:docname="frontplate_v1.svg"
   inkscape:version="1.3 (0e150ed6c4, 2023-07-21)"
   xmlns:inkscape="http://www.inkscape.org/namespaces/inkscape"
   xmlns:sodipodi="http://sodipodi.sourceforge.net/DTD/sodipodi-0.dtd"
   xmlns="http://www.w3.org/2000/svg"
   xmlns:svg="http://www.w3.org/2000/svg"
   xmlns:rdf="http://www.w3.org/1999/02/22-rdf-syntax-ns#"
   xmlns:cc="http://creativecommons.org/ns#"
   xmlns:dc="http://purl.org/dc/elements/1.1/"><metadata
     id="metadata8"><rdf:RDF><cc:Work
         rdf:about=""><dc:format>image/svg+xml</dc:format><dc:type
           rdf:resource="http://purl.org/dc/dcmitype/StillImage" /></cc:Work></rdf:RDF></metadata><defs
     id="defs6"><clipPath
       clipPathUnits="userSpaceOnUse"
       id="clipPath18"><path
         d="M 0,1296 H 1728 V 0 H 0 Z"
         id="path16"
         inkscape:connector-curvature="0" /></clipPath><clipPath
       clipPathUnits="userSpaceOnUse"
       id="clipPath66"><path
         d="M 0,1296 H 1728 V 0 H 0 Z"
         id="path64"
         inkscape:connector-curvature="0" /></clipPath><clipPath
       clipPathUnits="userSpaceOnUse"
       id="clipPath114"><path
         d="M 0,1296 H 1728 V 0 H 0 Z"
         id="path112"
         inkscape:connector-curvature="0" /></clipPath><clipPath
       clipPathUnits="userSpaceOnUse"
       id="clipPath126"><path
         d="M 639.733,602.209 H 712.82 V 515.643 H 639.733 Z"
         id="path124"
         inkscape:connector-curvature="0" /></clipPath><clipPath
       clipPathUnits="userSpaceOnUse"
       id="clipPath142"><path
         d="m 719.43,602.471 h 96.184 V 512.306 H 719.43 Z"
         id="path140"
         inkscape:connector-curvature="0" /></clipPath><clipPath
       clipPathUnits="userSpaceOnUse"
       id="clipPath158"><path
         d="m 827.326,599.003 h 55.747 v -83.36 h -55.747 z"
         id="path156"
         inkscape:connector-curvature="0" /></clipPath><clipPath
       clipPathUnits="userSpaceOnUse"
       id="clipPath174"><path
         d="m 894.851,599.003 h 37.558 v -83.36 h -37.558 z"
         id="path172"
         inkscape:connector-curvature="0" /></clipPath><clipPath
       clipPathUnits="userSpaceOnUse"
       id="clipPath190"><path
         d="m 943.466,599.003 h 51.756 v -83.36 h -51.756 z"
         id="path188"
         inkscape:connector-curvature="0" /></clipPath><clipPath
       clipPathUnits="userSpaceOnUse"
       id="clipPath210"><path
         d="m 1082.6,582.097 h 64.12 v -64.115 h -64.12 z"
         id="path208"
         inkscape:connector-curvature="0" /></clipPath><clipPath
       clipPathUnits="userSpaceOnUse"
       id="clipPath226"><path
         d="m 1094.14,570.557 h 41.04 v -41.034 h -41.04 z"
         id="path224"
         inkscape:connector-curvature="0" /></clipPath></defs><sodipodi:namedview
     pagecolor="#ffffff"
     bordercolor="#666666"
     borderopacity="1"
     objecttolerance="10"
     gridtolerance="10"
     guidetolerance="10"
     inkscape:pageopacity="0"
     inkscape:pageshadow="2"
     inkscape:window-width="1450"
     inkscape:window-height="1033"
     id="namedview4"
     showgrid="true"
     units="in"
     inkscape:zoom="0.13657408"
     inkscape:cx="490.57627"
     inkscape:cy="1241.0847"
     inkscape:window-x="160"
     inkscape:window-y="0"
     inkscape:window-maximized="0"
     inkscape:current-layer="g10"
     inkscape:showpageshadow="2"
     inkscape:pagecheckerboard="0"
     inkscape:deskcolor="#d1d1d1"
     inkscape:document-units="in"><inkscape:grid
       id="grid1"
       units="in"
       originx="0"
       originy="0"
       spacingx="48"
       spacingy="48"
       empcolor="#3f3fff"
       empopacity="0.25098039"
       color="#3f3fff"
       opacity="0.1254902"
       empspacing="2"
       dotted="true"
       gridanglex="30"
       gridanglez="30"
       visible="true" /></sodipodi:namedview><g
     id="g10"
     inkscape:groupmode="layer"
     inkscape:label="MyMaker_LasercutTemplate_Illustrator"
     transform="matrix(1.3333333,0,0,-1.3333333,0,1728)"><path
       d="M 1719.072,1287 H 1719 v -16 h 0.072 z m 0,-36 H 1719 v -20 h 0.072 z m 0,-40 H 1719 v -20 h 0.072 z m 0,-40 H 1719 v -20 h 0.072 z m 0,-40 H 1719 v -20 h 0.072 z m 0,-40 H 1719 v -20 h 0.072 z m 0,-40 H 1719 v -20 h 0.072 z m 0,-40 H 1719 v -20 h 0.072 z m 0,-40 H 1719 v -20 h 0.072 z m 0,-40 H 1719 v -20 h 0.072 z m 0,-40 H 1719 v -20 h 0.072 z m 0,-40 H 1719 v -20 h 0.072 z m 0,-40 H 1719 v -20 h 0.072 z m 0,-40 H 1719 v -20 h 0.072 z m 0,-40 H 1719 v -20 h 0.072 z m 0,-40 H 1719 v -20 h 0.072 z m 0,-40 H 1719 v -20 h 0.072 z m 0,-40 H 1719 v -20 h 0.072 z m 0,-40 H 1719 v -20 h 0.072 z m 0,-40 H 1719 v -20 h 0.072 z m 0,-40 H 1719 v -20 h 0.072 z m 0,-40 H 1719 v -20 h 0.072 z m 0,-40 H 1719 v -20 h 0.072 z m 0,-40 H 1719 v -20 h 0.072 z m 0,-40 H 1719 v -20 h 0.072 z m 0,-40 H 1719 v -20 h 0.072 z m 0,-40 H 1719 v -20 h 0.072 z m 0,-40 H 1719 v -20 h 0.072 z m 0,-40 H 1719 v -20 h 0.072 z m 0,-40 H 1719 v -20 h 0.072 z m 0,-40 H 1719 V 71 h 0.072 z m 0,-40 H 1719 V 31 h 0.072 z m 0,-40 H 1719 V 9 h -18 V 8.928 h 18 0.072 V 9 Z M 1681,9 h -20 V 8.928 h 20 z m -40,0 h -20 V 8.928 h 20 z m -40,0 h -20 V 8.928 h 20 z m -40,0 h -20 V 8.928 h 20 z m -40,0 h -20 V 8.928 h 20 z m -40,0 h -20 V 8.928 h 20 z m -40,0 h -20 V 8.928 h 20 z m -40,0 h -20 V 8.928 h 20 z m -40,0 h -20 V 8.928 h 20 z m -40,0 h -20 V 8.928 h 20 z m -40,0 h -20 V 8.928 h 20 z m -40,0 h -20 V 8.928 h 20 z m -40,0 h -20 V 8.928 h 20 z m -40,0 h -20 V 8.928 h 20 z m -40,0 h -20 V 8.928 h 20 z m -40,0 h -20 V 8.928 h 20 z m -40,0 h -20 V 8.928 h 20 z m -40,0 H 981 V 8.928 h 20 z M 961,9 H 941 V 8.928 h 20 z M 921,9 H 901 V 8.928 h 20 z M 881,9 H 861 V 8.928 h 20 z M 841,9 H 821 V 8.928 h 20 z M 801,9 H 781 V 8.928 h 20 z M 761,9 H 741 V 8.928 h 20 z M 721,9 H 701 V 8.928 h 20 z M 681,9 H 661 V 8.928 h 20 z M 641,9 H 621 V 8.928 h 20 z M 601,9 H 581 V 8.928 h 20 z M 561,9 H 541 V 8.928 h 20 z M 521,9 H 501 V 8.928 h 20 z M 481,9 H 461 V 8.928 h 20 z M 441,9 H 421 V 8.928 h 20 z M 401,9 H 381 V 8.928 h 20 z M 361,9 H 341 V 8.928 h 20 z M 321,9 H 301 V 8.928 h 20 z M 281,9 H 261 V 8.928 h 20 z M 241,9 H 221 V 8.928 h 20 z M 201,9 H 181 V 8.928 h 20 z M 161,9 H 141 V 8.928 h 20 z M 121,9 H 101 V 8.928 h 20 z M 81,9 H 61 V 8.928 H 81 Z M 41,9 H 21 V 8.928 H 41 Z M 9,37 H 8.928 V 17 H 9 Z M 9,77 H 8.928 V 57 H 9 Z m 0,40 H 8.928 V 97 H 9 Z m 0,40 H 8.928 V 137 H 9 Z m 0,40 H 8.928 V 177 H 9 Z m 0,40 H 8.928 V 217 H 9 Z m 0,40 H 8.928 V 257 H 9 Z m 0,40 H 8.928 V 297 H 9 Z m 0,40 H 8.928 V 337 H 9 Z m 0,40 H 8.928 V 377 H 9 Z m 0,40 H 8.928 V 417 H 9 Z m 0,40 H 8.928 V 457 H 9 Z m 0,40 H 8.928 V 497 H 9 Z m 0,40 H 8.928 V 537 H 9 Z m 0,40 H 8.928 V 577 H 9 Z m 0,40 H 8.928 V 617 H 9 Z m 0,40 H 8.928 V 657 H 9 Z m 0,40 H 8.928 V 697 H 9 Z m 0,40 H 8.928 V 737 H 9 Z m 0,40 H 8.928 V 777 H 9 Z m 0,40 H 8.928 V 817 H 9 Z m 0,40 H 8.928 V 857 H 9 Z m 0,40 H 8.928 V 897 H 9 Z m 0,40 H 8.928 V 937 H 9 Z m 0,40 H 8.928 V 977 H 9 Z m 0,40 H 8.928 v -20 H 9 Z m 0,40 H 8.928 v -20 H 9 Z m 0,40 H 8.928 v -20 H 9 Z m 0,40 H 8.928 v -20 H 9 Z m 0,40 H 8.928 v -20 H 9 Z m 0,40 H 8.928 v -20 H 9 Z m 0,40 H 8.928 v -20 H 9 Z m 30,10.072 H 19 V 1287 h 20 z m 40,0 H 59 V 1287 h 20 z m 40,0 H 99 V 1287 h 20 z m 40,0 H 139 V 1287 h 20 z m 40,0 H 179 V 1287 h 20 z m 40,0 H 219 V 1287 h 20 z m 40,0 H 259 V 1287 h 20 z m 40,0 H 299 V 1287 h 20 z m 40,0 H 339 V 1287 h 20 z m 40,0 H 379 V 1287 h 20 z m 40,0 H 419 V 1287 h 20 z m 40,0 H 459 V 1287 h 20 z m 40,0 H 499 V 1287 h 20 z m 40,0 H 539 V 1287 h 20 z m 40,0 H 579 V 1287 h 20 z m 40,0 H 619 V 1287 h 20 z m 40,0 H 659 V 1287 h 20 z m 40,0 H 699 V 1287 h 20 z m 40,0 H 739 V 1287 h 20 z m 40,0 H 779 V 1287 h 20 z m 40,0 H 819 V 1287 h 20 z m 40,0 H 859 V 1287 h 20 z m 40,0 H 899 V 1287 h 20 z m 40,0 H 939 V 1287 h 20 z m 40,0 H 979 V 1287 h 20 z m 40,0 h -20 V 1287 h 20 z m 40,0 h -20 V 1287 h 20 z m 40,0 h -20 V 1287 h 20 z m 40,0 h -20 V 1287 h 20 z m 40,0 h -20 V 1287 h 20 z m 40,0 h -20 V 1287 h 20 z m 40,0 h -20 V 1287 h 20 z m 40,0 h -20 V 1287 h 20 z m 40,0 h -20 V 1287 h 20 z m 40,0 h -20 V 1287 h 20 z m 40,0 h -20 V 1287 h 20 z m 40,0 h -20 V 1287 h 20 z m 40,0 h -20 V 1287 h 20 z m 40,0 h -20 V 1287 h 20 z m 40,0 h -20 V 1287 h 20 z m 40,0 h -20 V 1287 h 20 z m 40,0 h -20 V 1287 h 20 z m 40,0 h -20 V 1287 h 20 z"
       style="fill:#231f20;fill-opacity:1;fill-rule:nonzero;stroke:none;stroke-width:1.00800003;stroke-dasharray:none"
       id="path236"
       inkscape:connector-curvature="0" /><rect
       style="fill:none;stroke-width:0.072;stroke-miterlimit:6.1;stroke:#ff0000;fill-opacity:1;stroke-opacity:1;stroke-dasharray:none"
       id="rect1"
       width="354.88846"
       height="396"
       x="1301.1116"
       y="-504"
       transform="scale(1,-1)" /><rect
       style="fill:none;stroke-width:0.072;stroke-miterlimit:6.1;stroke:#ff0000;fill-opacity:1;stroke-opacity:1;stroke-dasharray:none"
       id="rect2"
       width="425.86615"
       height="432"
       x="810.03351"
       y="-540"
       transform="scale(1,-1)" /><rect
       style="fill:none;stroke-width:0.072;stroke-miterlimit:6.1;stroke:#ff0000;fill-opacity:1;stroke-opacity:1;stroke-dasharray:none"
       id="rect3"
       width="567.82153"
       height="360"
       x="177"
       y="-468"
       transform="scale(1,-1)" /><rect
       style="fill:none;stroke-width:0.072;stroke-miterlimit:6.1;stroke:#ff0000;fill-opacity:1;stroke-opacity:1;stroke-dasharray:none"
       id="rect4"
       width="603.31036"
       height="396"
       x="177"
       y="-1188"
       transform="scale(1,-1)" /><rect
       style="fill:none;stroke-width:0.072;stroke-miterlimit:6.1;stroke:#ff0000;fill-opacity:1;stroke-opacity:1;stroke-dasharray:none"
       id="rect5"
       width="354.88846"
       height="432"
       x="845.52234"
       y="-1188"
       transform="scale(1,-1)" /><rect
       style="fill:none;stroke-width:0.072;stroke-miterlimit:6.1;stroke:#ff0000;fill-opacity:1;stroke-opacity:1;stroke-dasharray:none"
       id="rect6"
       width="390.37729"
       height="540"
       x="1265.6228"
       y="-1188"
       transform="scale(1,-1)" /><rect
       style="fill:none;stroke-width:0.072;stroke-miterlimit:6.1;stroke:#ff0000;fill-opacity:1;stroke-opacity:1;stroke-dasharray:none"
       id="rect7"
       width="49.5"
       height="1080"
       x="72"
       y="-1188"
       transform="scale(1,-1)" /><text
       xml:space="preserve"
       style="font-size:30px;line-height:1.25;font-family:'JetBrains Mono';-inkscape-font-specification:'JetBrains Mono Bold';letter-spacing:0px;word-spacing:0px;stroke-width:0.75;font-weight:bold;font-style:normal;font-stretch:normal;font-variant:normal"
       x="180"
       y="-648"
       id="text7"
       transform="scale(1,-1)"><tspan
         sodipodi:role="line"
         id="tspan7"
         style="font-style:normal;font-variant:normal;font-weight:bold;font-stretch:normal;font-family:'JetBrains Mono';-inkscape-font-specification:'JetBrains Mono Bold';stroke-width:0.75"
         x="180"
         y="-648" /><tspan
         sodipodi:role="line"
         style="font-style:normal;font-variant:normal;font-weight:bold;font-stretch:normal;font-family:'JetBrains Mono';-inkscape-font-specification:'JetBrains Mono Bold';stroke-width:0.75"
         x="180"
         y="-610.5"
         id="tspan1" /></text><text
       xml:space="preserve"
       style="font-size:30px;line-height:1.25;font-family:Consolas;-inkscape-font-specification:Consolas;letter-spacing:0px;word-spacing:0px;stroke-width:0.75;fill:#999999"
       x="174.69"
       y="-620.25"
       id="text2"
       transform="scale(1,-1)"><tspan
         sodipodi:role="line"
         id="tspan2"
         style="font-style:normal;font-variant:normal;font-weight:normal;font-stretch:normal;font-family:'JetBrains Mono';-inkscape-font-specification:'JetBrains Mono';stroke-width:0.75;fill:#999999"
         x="174.69"
         y="-620.25"><tspan
   style="font-style:normal;font-variant:normal;font-weight:bold;font-stretch:normal;font-family:'JetBrains Mono';-inkscape-font-specification:'JetBrains Mono Bold';fill:#999999"
   id="tspan3">hack-it</tspan> | spark design club</tspan></text><rect
       style="fill:none;fill-opacity:1;stroke:#ff0000;stroke-width:0.072;stroke-miterlimit:6.1;stroke-opacity:1;stroke-dasharray:none"
       id="rect8"
       width="8.8235464"
       height="107.82355"
       x="-759.29181"
       y="-778.11755"
       transform="matrix(0,-1,-1,0,0,0)" /><rect
       style="fill:none;fill-opacity:1;stroke:#ff0000;stroke-width:0.072;stroke-miterlimit:6.1;stroke-opacity:1;stroke-dasharray:none"
       id="rect9"
       width="8.8235464"
       height="107.82355"
       x="-724.34393"
       y="-1201.4425"
       transform="matrix(0,-1,-1,0,0,0)" /><rect
       style="fill:none;fill-opacity:1;stroke:#ff0000;stroke-width:0.072;stroke-miterlimit:6.1;stroke-opacity:1;stroke-dasharray:none"
       id="rect10"
       width="8.8235464"
       height="107.82355"
       x="-616.79315"
       y="-1657.2252"
       transform="matrix(0,-1,-1,0,0,0)" /><rect
       style="fill:none;fill-opacity:1;stroke:#ff0000;stroke-width:0.072;stroke-miterlimit:6.1;stroke-opacity:1;stroke-dasharray:none"
       id="rect11"
       width="8.8235464"
       height="107.82355"
       x="-544.4118"
       y="-1657.2252"
       transform="matrix(0,-1,-1,0,0,0)" /><rect
       style="fill:none;fill-opacity:1;stroke:#ff0000;stroke-width:0.072;stroke-miterlimit:6.1;stroke-opacity:1;stroke-dasharray:none"
       id="rect12"
       width="8.8235464"
       height="107.82355"
       x="-579.35968"
       y="-1237.0383"
       transform="matrix(0,-1,-1,0,0,0)" /><rect
       style="fill:none;fill-opacity:1;stroke:#ff0000;stroke-width:0.072;stroke-miterlimit:6.1;stroke-opacity:1;stroke-dasharray:none"
       id="rect13"
       width="8.8235464"
       height="107.82355"
       x="-512.37628"
       y="-746.02655"
       transform="matrix(0,-1,-1,0,0,0)" /><text
       xml:space="preserve"
       style="font-size:12px;line-height:1.25;font-family:Consolas;-inkscape-font-specification:Consolas;letter-spacing:0px;word-spacing:0px;fill:#666666;stroke-width:0.75"
       x="586.03522"
       y="-504.12003"
       id="text14"
       transform="scale(1,-1)"><tspan
         sodipodi:role="line"
         id="tspan14"
         style="font-style:normal;font-variant:normal;font-weight:bold;font-stretch:normal;font-size:12px;font-family:'JetBrains Mono';-inkscape-font-specification:'JetBrains Mono Bold';fill:#666666;stroke-width:0.75"
         x="586.03522"
         y="-504.12003">wire-it</tspan></text><text
       xml:space="preserve"
       style="font-size:12px;line-height:1.25;font-family:Consolas;-inkscape-font-specification:Consolas;letter-spacing:0px;word-spacing:0px;fill:#666666;stroke-width:0.75"
       x="603.22894"
       y="-750.22406"
       id="text15"
       transform="scale(1,-1)"><tspan
         sodipodi:role="line"
         id="tspan15"
         style="font-style:normal;font-variant:normal;font-weight:bold;font-stretch:normal;font-size:12px;font-family:'JetBrains Mono';-inkscape-font-specification:'JetBrains Mono Bold';fill:#666666;stroke-width:0.75"
         x="603.22894"
         y="-750.22406">catch-it</tspan></text><text
       xml:space="preserve"
       style="font-size:12px;line-height:1.25;font-family:Consolas;-inkscape-font-specification:Consolas;letter-spacing:0px;word-spacing:0px;fill:#666666;stroke-width:0.75"
       x="1044"
       y="-715.55219"
       id="text16"
       transform="scale(1,-1)"><tspan
         sodipodi:role="line"
         id="tspan16"
         style="font-style:normal;font-variant:normal;font-weight:bold;font-stretch:normal;font-size:12px;font-family:'JetBrains Mono';-inkscape-font-specification:'JetBrains Mono Bold';fill:#666666;stroke-width:0.75"
         x="1044"
         y="-715.55219">hex-it</tspan></text><text
       xml:space="preserve"
       style="font-size:12px;line-height:1.25;font-family:Consolas;-inkscape-font-specification:Consolas;letter-spacing:0px;word-spacing:0px;fill:#666666;stroke-width:0.75"
       x="1471.5017"
       y="-608.0014"
       id="text17"
       transform="scale(1,-1)"><tspan
         sodipodi:role="line"
         id="tspan17"
         style="font-style:normal;font-variant:normal;font-weight:bold;font-stretch:normal;font-size:12px;font-family:'JetBrains Mono';-inkscape-font-specification:'JetBrains Mono Bold';fill:#666666;stroke-width:0.75"
         x="1471.5017"
         y="-608.0014">scoreboard</tspan></text><text
       xml:space="preserve"
       style="font-size:12px;line-height:1.25;font-family:Consolas;-inkscape-font-specification:Consolas;letter-spacing:0px;word-spacing:0px;fill:#666666;stroke-width:0.75"
       x="1490.0677"
       y="-535.74005"
       id="text18"
       transform="scale(1,-1)"><tspan
         sodipodi:role="line"
         id="tspan18"
         style="font-style:normal;font-variant:normal;font-weight:bold;font-stretch:normal;font-size:12px;font-family:'JetBrains Mono';-inkscape-font-specification:'JetBrains Mono Bold';fill:#666666;stroke-width:0.75"
         x="1490.0677"
         y="-535.74005">code-it</tspan></text><text
       xml:space="preserve"
       style="font-size:12px;line-height:1.25;font-family:Consolas;-inkscape-font-specification:Consolas;letter-spacing:0px;word-spacing:0px;fill:#666666;stroke-width:0.75"
       x="1059.2159"
       y="-570.29193"
       id="text19"
       transform="scale(1,-1)"><tspan
         sodipodi:role="line"
         id="tspan19"
         style="font-style:normal;font-variant:normal;font-weight:bold;font-stretch:normal;font-size:12px;font-family:'JetBrains Mono';-inkscape-font-specification:'JetBrains Mono Bold';fill:#666666;stroke-width:0.75"
         x="1059.2159"
         y="-570.29193">click-it</tspan></text></g></svg>
