<?xml version="1.0" encoding="UTF-8" standalone="no"?>
<svg
   xmlns:dc="http://purl.org/dc/elements/1.1/"
   xmlns:cc="http://creativecommons.org/ns#"
   xmlns:rdf="http://www.w3.org/1999/02/22-rdf-syntax-ns#"
   xmlns:svg="http://www.w3.org/2000/svg"
   xmlns="http://www.w3.org/2000/svg"
   xmlns:sodipodi="http://sodipodi.sourceforge.net/DTD/sodipodi-0.dtd"
   xmlns:inkscape="http://www.inkscape.org/namespaces/inkscape"
   version="1.1"
   id="svg2"
   xml:space="preserve"
   width="24in"
   height="18in"
   viewBox="0 0 2304 1728"
   sodipodi:docname="frontplate_v2.svg"
   inkscape:version="1.0.1 (3bc2e813f5, 2020-09-07)"><metadata
     id="metadata8"><rdf:RDF><cc:Work
         rdf:about=""><dc:format>image/svg+xml</dc:format><dc:type
           rdf:resource="http://purl.org/dc/dcmitype/StillImage" /><dc:title></dc:title></cc:Work></rdf:RDF></metadata><defs
     id="defs6"><clipPath
       clipPathUnits="userSpaceOnUse"
       id="clipPath18"><path
         d="M 0,1296 H 1728 V 0 H 0 Z"
         id="path16"
         inkscape:connector-curvature="0" /></clipPath><clipPath
       clipPathUnits="userSpaceOnUse"
       id="clipPath66"><path
         d="M 0,1296 H 1728 V 0 H 0 Z"
         id="path64"
         inkscape:connector-curvature="0" /></clipPath><clipPath
       clipPathUnits="userSpaceOnUse"
       id="clipPath114"><path
         d="M 0,1296 H 1728 V 0 H 0 Z"
         id="path112"
         inkscape:connector-curvature="0" /></clipPath><clipPath
       clipPathUnits="userSpaceOnUse"
       id="clipPath126"><path
         d="M 639.733,602.209 H 712.82 V 515.643 H 639.733 Z"
         id="path124"
         inkscape:connector-curvature="0" /></clipPath><clipPath
       clipPathUnits="userSpaceOnUse"
       id="clipPath142"><path
         d="m 719.43,602.471 h 96.184 V 512.306 H 719.43 Z"
         id="path140"
         inkscape:connector-curvature="0" /></clipPath><clipPath
       clipPathUnits="userSpaceOnUse"
       id="clipPath158"><path
         d="m 827.326,599.003 h 55.747 v -83.36 h -55.747 z"
         id="path156"
         inkscape:connector-curvature="0" /></clipPath><clipPath
       clipPathUnits="userSpaceOnUse"
       id="clipPath174"><path
         d="m 894.851,599.003 h 37.558 v -83.36 h -37.558 z"
         id="path172"
         inkscape:connector-curvature="0" /></clipPath><clipPath
       clipPathUnits="userSpaceOnUse"
       id="clipPath190"><path
         d="m 943.466,599.003 h 51.756 v -83.36 h -51.756 z"
         id="path188"
         inkscape:connector-curvature="0" /></clipPath><clipPath
       clipPathUnits="userSpaceOnUse"
       id="clipPath210"><path
         d="m 1082.6,582.097 h 64.12 v -64.115 h -64.12 z"
         id="path208"
         inkscape:connector-curvature="0" /></clipPath><clipPath
       clipPathUnits="userSpaceOnUse"
       id="clipPath226"><path
         d="m 1094.14,570.557 h 41.04 v -41.034 h -41.04 z"
         id="path224"
         inkscape:connector-curvature="0" /></clipPath></defs><sodipodi:namedview
     pagecolor="#ffffff"
     bordercolor="#666666"
     borderopacity="1"
     objecttolerance="10"
     gridtolerance="10"
     guidetolerance="10"
     inkscape:pageopacity="0"
     inkscape:pageshadow="2"
     inkscape:window-width="3840"
     inkscape:window-height="2080"
     id="namedview4"
     showgrid="true"
     units="in"
     inkscape:zoom="1.0925926"
     inkscape:cx="1213.1615"
     inkscape:cy="864.32394"
     inkscape:window-x="2869"
     inkscape:window-y="-11"
     inkscape:window-maximized="1"
     inkscape:current-layer="g10"
     inkscape:showpageshadow="2"
     inkscape:pagecheckerboard="0"
     inkscape:deskcolor="#d1d1d1"
     inkscape:document-units="in"
     inkscape:document-rotation="0"
     inkscape:snap-grids="false"
     inkscape:snap-to-guides="false"
     showguides="false"><inkscape:grid
       id="grid1"
       units="in"
       originx="0"
       originy="0"
       spacingx="48"
       spacingy="48"
       empcolor="#3f3fff"
       empopacity="0.25098039"
       color="#3f3fff"
       opacity="0.1254902"
       empspacing="2"
       dotted="true"
       gridanglex="30"
       gridanglez="30"
       visible="true" /></sodipodi:namedview><g
     id="g10"
     inkscape:groupmode="layer"
     inkscape:label="MyMaker_LasercutTemplate_Illustrator"
     transform="matrix(1.3333333,0,0,-1.3333333,0,1728)"><path
       d="M 1719.072,1287 H 1719 v -16 h 0.072 z m 0,-36 H 1719 v -20 h 0.072 z m 0,-40 H 1719 v -20 h 0.072 z m 0,-40 H 1719 v -20 h 0.072 z m 0,-40 H 1719 v -20 h 0.072 z m 0,-40 H 1719 v -20 h 0.072 z m 0,-40 H 1719 v -20 h 0.072 z m 0,-40 H 1719 v -20 h 0.072 z m 0,-40 H 1719 v -20 h 0.072 z m 0,-40 H 1719 v -20 h 0.072 z m 0,-40 H 1719 v -20 h 0.072 z m 0,-40 H 1719 v -20 h 0.072 z m 0,-40 H 1719 v -20 h 0.072 z m 0,-40 H 1719 v -20 h 0.072 z m 0,-40 H 1719 v -20 h 0.072 z m 0,-40 H 1719 v -20 h 0.072 z m 0,-40 H 1719 v -20 h 0.072 z m 0,-40 H 1719 v -20 h 0.072 z m 0,-40 H 1719 v -20 h 0.072 z m 0,-40 H 1719 v -20 h 0.072 z m 0,-40 H 1719 v -20 h 0.072 z m 0,-40 H 1719 v -20 h 0.072 z m 0,-40 H 1719 v -20 h 0.072 z m 0,-40 H 1719 v -20 h 0.072 z m 0,-40 H 1719 v -20 h 0.072 z m 0,-40 H 1719 v -20 h 0.072 z m 0,-40 H 1719 v -20 h 0.072 z m 0,-40 H 1719 v -20 h 0.072 z m 0,-40 H 1719 v -20 h 0.072 z m 0,-40 H 1719 v -20 h 0.072 z m 0,-40 H 1719 V 71 h 0.072 z m 0,-40 H 1719 V 31 h 0.072 z m 0,-40 H 1719 V 9 h -18 V 8.928 h 18 0.072 V 9 Z M 1681,9 h -20 V 8.928 h 20 z m -40,0 h -20 V 8.928 h 20 z m -40,0 h -20 V 8.928 h 20 z m -40,0 h -20 V 8.928 h 20 z m -40,0 h -20 V 8.928 h 20 z m -40,0 h -20 V 8.928 h 20 z m -40,0 h -20 V 8.928 h 20 z m -40,0 h -20 V 8.928 h 20 z m -40,0 h -20 V 8.928 h 20 z m -40,0 h -20 V 8.928 h 20 z m -40,0 h -20 V 8.928 h 20 z m -40,0 h -20 V 8.928 h 20 z m -40,0 h -20 V 8.928 h 20 z m -40,0 h -20 V 8.928 h 20 z m -40,0 h -20 V 8.928 h 20 z m -40,0 h -20 V 8.928 h 20 z m -40,0 h -20 V 8.928 h 20 z m -40,0 H 981 V 8.928 h 20 z M 961,9 H 941 V 8.928 h 20 z M 921,9 H 901 V 8.928 h 20 z M 881,9 H 861 V 8.928 h 20 z M 841,9 H 821 V 8.928 h 20 z M 801,9 H 781 V 8.928 h 20 z M 761,9 H 741 V 8.928 h 20 z M 721,9 H 701 V 8.928 h 20 z M 681,9 H 661 V 8.928 h 20 z M 641,9 H 621 V 8.928 h 20 z M 601,9 H 581 V 8.928 h 20 z M 561,9 H 541 V 8.928 h 20 z M 521,9 H 501 V 8.928 h 20 z M 481,9 H 461 V 8.928 h 20 z M 441,9 H 421 V 8.928 h 20 z M 401,9 H 381 V 8.928 h 20 z M 361,9 H 341 V 8.928 h 20 z M 321,9 H 301 V 8.928 h 20 z M 281,9 H 261 V 8.928 h 20 z M 241,9 H 221 V 8.928 h 20 z M 201,9 H 181 V 8.928 h 20 z M 161,9 H 141 V 8.928 h 20 z M 121,9 H 101 V 8.928 h 20 z M 81,9 H 61 V 8.928 H 81 Z M 41,9 H 21 V 8.928 H 41 Z M 9,37 H 8.928 V 17 H 9 Z M 9,77 H 8.928 V 57 H 9 Z m 0,40 H 8.928 V 97 H 9 Z m 0,40 H 8.928 V 137 H 9 Z m 0,40 H 8.928 V 177 H 9 Z m 0,40 H 8.928 V 217 H 9 Z m 0,40 H 8.928 V 257 H 9 Z m 0,40 H 8.928 V 297 H 9 Z m 0,40 H 8.928 V 337 H 9 Z m 0,40 H 8.928 V 377 H 9 Z m 0,40 H 8.928 V 417 H 9 Z m 0,40 H 8.928 V 457 H 9 Z m 0,40 H 8.928 V 497 H 9 Z m 0,40 H 8.928 V 537 H 9 Z m 0,40 H 8.928 V 577 H 9 Z m 0,40 H 8.928 V 617 H 9 Z m 0,40 H 8.928 V 657 H 9 Z m 0,40 H 8.928 V 697 H 9 Z m 0,40 H 8.928 V 737 H 9 Z m 0,40 H 8.928 V 777 H 9 Z m 0,40 H 8.928 V 817 H 9 Z m 0,40 H 8.928 V 857 H 9 Z m 0,40 H 8.928 V 897 H 9 Z m 0,40 H 8.928 V 937 H 9 Z m 0,40 H 8.928 V 977 H 9 Z m 0,40 H 8.928 v -20 H 9 Z m 0,40 H 8.928 v -20 H 9 Z m 0,40 H 8.928 v -20 H 9 Z m 0,40 H 8.928 v -20 H 9 Z m 0,40 H 8.928 v -20 H 9 Z m 0,40 H 8.928 v -20 H 9 Z m 0,40 H 8.928 v -20 H 9 Z m 30,10.072 H 19 V 1287 h 20 z m 40,0 H 59 V 1287 h 20 z m 40,0 H 99 V 1287 h 20 z m 40,0 H 139 V 1287 h 20 z m 40,0 H 179 V 1287 h 20 z m 40,0 H 219 V 1287 h 20 z m 40,0 H 259 V 1287 h 20 z m 40,0 H 299 V 1287 h 20 z m 40,0 H 339 V 1287 h 20 z m 40,0 H 379 V 1287 h 20 z m 40,0 H 419 V 1287 h 20 z m 40,0 H 459 V 1287 h 20 z m 40,0 H 499 V 1287 h 20 z m 40,0 H 539 V 1287 h 20 z m 40,0 H 579 V 1287 h 20 z m 40,0 H 619 V 1287 h 20 z m 40,0 H 659 V 1287 h 20 z m 40,0 H 699 V 1287 h 20 z m 40,0 H 739 V 1287 h 20 z m 40,0 H 779 V 1287 h 20 z m 40,0 H 819 V 1287 h 20 z m 40,0 H 859 V 1287 h 20 z m 40,0 H 899 V 1287 h 20 z m 40,0 H 939 V 1287 h 20 z m 40,0 H 979 V 1287 h 20 z m 40,0 h -20 V 1287 h 20 z m 40,0 h -20 V 1287 h 20 z m 40,0 h -20 V 1287 h 20 z m 40,0 h -20 V 1287 h 20 z m 40,0 h -20 V 1287 h 20 z m 40,0 h -20 V 1287 h 20 z m 40,0 h -20 V 1287 h 20 z m 40,0 h -20 V 1287 h 20 z m 40,0 h -20 V 1287 h 20 z m 40,0 h -20 V 1287 h 20 z m 40,0 h -20 V 1287 h 20 z m 40,0 h -20 V 1287 h 20 z m 40,0 h -20 V 1287 h 20 z m 40,0 h -20 V 1287 h 20 z m 40,0 h -20 V 1287 h 20 z m 40,0 h -20 V 1287 h 20 z m 40,0 h -20 V 1287 h 20 z m 40,0 h -20 V 1287 h 20 z"
       style="fill:#231f20;fill-opacity:1;fill-rule:nonzero;stroke:none;stroke-width:1.00800003;stroke-dasharray:none"
       id="path236"
       inkscape:connector-curvature="0" /><rect
       style="fill:none;fill-opacity:1;stroke:#ff0000;stroke-width:0.072;stroke-miterlimit:6.0999999;stroke-dasharray:none;stroke-opacity:1"
       id="rect1"
       width="320.67139"
       height="374.67139"
       x="1326.6871"
       y="-479.42386"
       transform="scale(1,-1)" /><rect
       style="fill:none;fill-opacity:1;stroke:#ff0000;stroke-width:0.072;stroke-miterlimit:6.0999999;stroke-dasharray:none;stroke-opacity:1"
       id="rect2"
       width="410.55417"
       height="410.55417"
       x="823.83429"
       y="-515.36523"
       transform="scale(1,-1)" /><rect
       style="fill:none;fill-opacity:1;stroke:#ff0000;stroke-width:0.072;stroke-miterlimit:6.0999999;stroke-dasharray:none;stroke-opacity:1"
       id="rect3"
       width="554.54993"
       height="338.54993"
       x="176.92503"
       y="-443.3631"
       transform="scale(1,-1)" /><rect
       style="fill:none;fill-opacity:1;stroke:#ff0000;stroke-width:0.072;stroke-miterlimit:6.0999999;stroke-dasharray:none;stroke-opacity:1"
       id="rect4"
       width="587.1156"
       height="338.71555"
       x="176.84222"
       y="-1188.1577"
       transform="scale(1,-1)" /><rect
       style="fill:none;fill-opacity:1;stroke:#ff0000;stroke-width:0.072;stroke-miterlimit:6.0999999;stroke-dasharray:none;stroke-opacity:1"
       id="rect5"
       width="320.66357"
       height="410.66357"
       x="854.37939"
       y="-1188.1318"
       transform="scale(1,-1)" /><rect
       style="fill:none;fill-opacity:1;stroke:#ff0000;stroke-width:0.072;stroke-miterlimit:6.0999999;stroke-dasharray:none;stroke-opacity:1"
       id="rect6"
       width="381.664"
       height="532.86401"
       x="1265.5905"
       y="-1188.032"
       transform="scale(1,-1)" /><text
       xml:space="preserve"
       style="font-size:30px;line-height:1.25;font-family:'JetBrains Mono';-inkscape-font-specification:'JetBrains Mono Bold';letter-spacing:0px;word-spacing:0px;stroke-width:0.75;font-weight:bold;font-style:normal;font-stretch:normal;font-variant:normal"
       x="180"
       y="-648"
       id="text7"
       transform="scale(1,-1)"><tspan
         sodipodi:role="line"
         id="tspan7"
         style="font-style:normal;font-variant:normal;font-weight:bold;font-stretch:normal;font-family:'JetBrains Mono';-inkscape-font-specification:'JetBrains Mono Bold';stroke-width:0.75"
         x="180"
         y="-648" /><tspan
         sodipodi:role="line"
         style="font-style:normal;font-variant:normal;font-weight:bold;font-stretch:normal;font-family:'JetBrains Mono';-inkscape-font-specification:'JetBrains Mono Bold';stroke-width:0.75"
         x="180"
         y="-610.5"
         id="tspan1" /></text><text
       xml:space="preserve"
       style="font-size:30px;line-height:1.25;font-family:Consolas;-inkscape-font-specification:Consolas;letter-spacing:0px;word-spacing:0px;stroke-width:0.75;fill:#999999"
       x="174.69"
       y="-620.25"
       id="text2"
       transform="scale(1,-1)"><tspan
         sodipodi:role="line"
         id="tspan2"
         style="font-style:normal;font-variant:normal;font-weight:normal;font-stretch:normal;font-family:'JetBrains Mono';-inkscape-font-specification:'JetBrains Mono';stroke-width:0.75;fill:#999999"
         x="174.69"
         y="-620.25"><tspan
   style="font-style:normal;font-variant:normal;font-weight:bold;font-stretch:normal;font-family:'JetBrains Mono';-inkscape-font-specification:'JetBrains Mono Bold';fill:#999999"
   id="tspan3">hack-it</tspan> | spark design club</tspan></text><rect
       style="fill:none;fill-opacity:1;stroke:#ff0000;stroke-width:0.072;stroke-miterlimit:6.0999999;stroke-dasharray:none;stroke-opacity:1"
       id="rect8"
       width="8.8235464"
       height="107.82355"
       x="-812.22516"
       y="-761.12903"
       transform="matrix(0,-1,-1,0,0,0)" /><rect
       style="fill:none;fill-opacity:1;stroke:#ff0000;stroke-width:0.072;stroke-miterlimit:6.0999999;stroke-dasharray:none;stroke-opacity:1"
       id="rect9"
       width="8.8235464"
       height="107.82355"
       x="-741.4538"
       y="-1173.29"
       transform="matrix(0,-1,-1,0,0,0)" /><rect
       style="fill:none;fill-opacity:1;stroke:#ff0000;stroke-width:0.072;stroke-miterlimit:6.1;stroke-dasharray:none;stroke-opacity:1"
       id="rect10"
       width="8.8235464"
       height="107.82355"
       x="-616.79315"
       y="-1644.3624"
       transform="matrix(0,-1,-1,0,0,0)" /><rect
       style="fill:none;fill-opacity:1;stroke:#ff0000;stroke-width:0.072;stroke-miterlimit:6.1;stroke-dasharray:none;stroke-opacity:1"
       id="rect11"
       width="8.8235464"
       height="107.82355"
       x="-519.69995"
       y="-1644.3624"
       transform="matrix(0,-1,-1,0,0,0)" /><rect
       style="fill:none;fill-opacity:1;stroke:#ff0000;stroke-width:0.072;stroke-miterlimit:6.0999999;stroke-dasharray:none;stroke-opacity:1"
       id="rect12"
       width="8.8235464"
       height="107.82355"
       x="-554.64783"
       y="-1233.0913"
       transform="matrix(0,-1,-1,0,0,0)" /><rect
       style="fill:none;fill-opacity:1;stroke:#ff0000;stroke-width:0.072;stroke-miterlimit:6.0999999;stroke-dasharray:none;stroke-opacity:1"
       id="rect13"
       width="8.8235464"
       height="107.82355"
       x="-487.66443"
       y="-734.13458"
       transform="matrix(0,-1,-1,0,0,0)" /><text
       xml:space="preserve"
       style="font-size:12px;line-height:1.25;font-family:Consolas;-inkscape-font-specification:Consolas;letter-spacing:0px;word-spacing:0px;fill:#666666;stroke-width:0.75"
       x="562.73663"
       y="-479.40817"
       id="text14"
       transform="scale(1,-1)"><tspan
         sodipodi:role="line"
         id="tspan14"
         style="font-style:normal;font-variant:normal;font-weight:bold;font-stretch:normal;font-size:12px;font-family:'JetBrains Mono';-inkscape-font-specification:'JetBrains Mono Bold';fill:#666666;stroke-width:0.75"
         x="562.73663"
         y="-479.40817">wire-it</tspan></text><text
       xml:space="preserve"
       style="font-size:12px;line-height:1.25;font-family:Consolas;-inkscape-font-specification:Consolas;letter-spacing:0px;word-spacing:0px;fill:#666666;stroke-width:0.75"
       x="992.0238"
       y="-732.38605"
       id="text15"
       transform="scale(1,-1)"><tspan
         sodipodi:role="line"
         id="tspan15"
         style="font-style:normal;font-variant:normal;font-weight:bold;font-stretch:normal;font-size:12px;font-family:'JetBrains Mono';-inkscape-font-specification:'JetBrains Mono Bold';fill:#666666;stroke-width:0.75"
         x="992.0238"
         y="-732.38605">catch-it</tspan></text><text
       xml:space="preserve"
       style="font-size:12px;line-height:1.25;font-family:Consolas;-inkscape-font-specification:Consolas;letter-spacing:0px;word-spacing:0px;fill:#666666;stroke-width:0.75"
       x="595.25983"
       y="-804.40417"
       id="text16"
       transform="scale(1,-1)"><tspan
         sodipodi:role="line"
         id="tspan16"
         style="font-style:normal;font-variant:normal;font-weight:bold;font-stretch:normal;font-size:12px;font-family:'JetBrains Mono';-inkscape-font-specification:'JetBrains Mono Bold';fill:#666666;stroke-width:0.75"
         x="595.25983"
         y="-804.40417">hex-it</tspan></text><text
       xml:space="preserve"
       style="font-size:12px;line-height:1.25;font-family:Consolas;-inkscape-font-specification:Consolas;letter-spacing:0px;word-spacing:0px;fill:#666666;stroke-width:0.75"
       x="1458.6389"
       y="-608.0014"
       id="text17"
       transform="scale(1,-1)"><tspan
         sodipodi:role="line"
         id="tspan17"
         style="font-style:normal;font-variant:normal;font-weight:bold;font-stretch:normal;font-size:12px;font-family:'JetBrains Mono';-inkscape-font-specification:'JetBrains Mono Bold';fill:#666666;stroke-width:0.75"
         x="1458.6389"
         y="-608.0014">scoreboard</tspan></text><text
       xml:space="preserve"
       style="font-size:12px;line-height:1.25;font-family:Consolas;-inkscape-font-specification:Consolas;letter-spacing:0px;word-spacing:0px;fill:#666666;stroke-width:0.75"
       x="1477.205"
       y="-511.0282"
       id="text18"
       transform="scale(1,-1)"><tspan
         sodipodi:role="line"
         id="tspan18"
         style="font-style:normal;font-variant:normal;font-weight:bold;font-stretch:normal;font-size:12px;font-family:'JetBrains Mono';-inkscape-font-specification:'JetBrains Mono Bold';fill:#666666;stroke-width:0.75"
         x="1477.205"
         y="-511.0282">code-it</tspan></text><text
       xml:space="preserve"
       style="font-size:12px;line-height:1.25;font-family:Consolas;-inkscape-font-specification:Consolas;letter-spacing:0px;word-spacing:0px;fill:#666666;stroke-width:0.75"
       x="1055.2689"
       y="-545.58008"
       id="text19"
       transform="scale(1,-1)"><tspan
         sodipodi:role="line"
         id="tspan19"
         style="font-style:normal;font-variant:normal;font-weight:bold;font-stretch:normal;font-size:12px;font-family:'JetBrains Mono';-inkscape-font-specification:'JetBrains Mono Bold';fill:#666666;stroke-width:0.75"
         x="1055.2689"
         y="-545.58008">click-it</tspan></text><rect
       style="fill:none;fill-opacity:1;stroke:#ff0000;stroke-width:0.072;stroke-miterlimit:6.1;stroke-dasharray:none;stroke-opacity:1"
       id="rect949"
       width="49.561657"
       height="22.25659"
       x="71.96917"
       y="-127.48007"
       transform="scale(1,-1)" /><text
       xml:space="preserve"
       style="font-size:64px;line-height:1.25;font-family:'Sweden Sans';-inkscape-font-specification:'Sweden Sans';writing-mode:tb-rl;fill:#f6f5f4;stroke-width:0.75;"
       x="96.932068"
       y="-1245.0319"
       id="text955"
       transform="scale(1,-1)"><tspan
         sodipodi:role="line"
         id="tspan953"
         x="-1243.515"
         y="95.415237"
         style="font-style:normal;font-variant:normal;font-weight:normal;font-stretch:normal;font-family:'Arial Unicode MS';-inkscape-font-specification:'Arial Unicode MS';fill:#f6f5f4;stroke-width:0.75;">🕰</tspan></text><text
       xml:space="preserve"
       style="font-size:17.0174px;line-height:1.25;font-family:Consolas;-inkscape-font-specification:Consolas;letter-spacing:0px;word-spacing:0px;fill:#77767b;stroke-width:0.425433;"
       x="185.93535"
       y="-1166.157"
       id="text961"
       transform="scale(1,-1)"><tspan
         sodipodi:role="line"
         style="font-style:normal;font-variant:normal;font-weight:normal;font-stretch:normal;font-family:'JetBrains Mono';-inkscape-font-specification:'JetBrains Mono';fill:#77767b;stroke-width:0.425433;"
         x="185.93535"
         y="-1166.157"
         id="tspan993"><tspan
   style="font-style:normal;font-variant:normal;font-weight:bold;font-stretch:normal;font-family:'JetBrains Mono';-inkscape-font-specification:'JetBrains Mono Bold';fill:#77767b;stroke-width:0.425433;"
   id="tspan957">hack-it</tspan> was built by the<tspan
   style="font-weight:bold;stroke-width:0.425433;fill:#77767b;"
   id="tspan995"></tspan></tspan><tspan
         sodipodi:role="line"
         style="font-style:normal;font-variant:normal;font-weight:normal;font-stretch:normal;font-family:'JetBrains Mono';-inkscape-font-specification:'JetBrains Mono';fill:#77767b;stroke-width:0.425433;"
         x="185.93535"
         y="-1144.3738"
         id="tspan1182"><tspan
           style="font-weight:bold;stroke-width:0.425433;fill:#77767b;"
           id="tspan1184">Spark Design Club from </tspan></tspan><tspan
         sodipodi:role="line"
         style="font-style:normal;font-variant:normal;font-weight:normal;font-stretch:normal;font-family:'JetBrains Mono';-inkscape-font-specification:'JetBrains Mono';fill:#77767b;stroke-width:0.425433;"
         x="185.93535"
         y="-1122.5907"
         id="tspan997">2022-2025.</tspan><tspan
         sodipodi:role="line"
         style="font-style:normal;font-variant:normal;font-weight:normal;font-stretch:normal;font-family:'JetBrains Mono';-inkscape-font-specification:'JetBrains Mono';fill:#77767b;stroke-width:0.425433;"
         x="185.93535"
         y="-1100.8075"
         id="tspan1001" /><tspan
         sodipodi:role="line"
         style="font-style:normal;font-variant:normal;font-weight:normal;font-stretch:normal;font-family:'JetBrains Mono';-inkscape-font-specification:'JetBrains Mono';fill:#77767b;stroke-width:0.425433;"
         x="185.93535"
         y="-1079.0244"
         id="tspan999">Thanks to all who contributed</tspan><tspan
         sodipodi:role="line"
         style="font-style:normal;font-variant:normal;font-weight:normal;font-stretch:normal;font-family:'JetBrains Mono';-inkscape-font-specification:'JetBrains Mono';fill:#77767b;stroke-width:0.425433;"
         x="185.93535"
         y="-1057.2412"
         id="tspan1003">to its design and construction.</tspan></text><rect
       style="fill:none;fill-opacity:1;stroke:#ff0000;stroke-width:0.072;stroke-miterlimit:6.0999999;stroke-dasharray:none;stroke-opacity:1"
       id="rect963"
       width="587.1156"
       height="338.71555"
       x="176.84222"
       y="-1188.1577"
       transform="scale(1,-1)" /><text
       xml:space="preserve"
       style="font-size:17.3365px;line-height:0;font-family:'Sweden Sans';-inkscape-font-specification:'Sweden Sans';writing-mode:tb-rl;fill:#c0bfbc;stroke:none;stroke-width:0.203162;"
       x="682.59857"
       y="-1174.2241"
       id="text1007"
       transform="scale(1,-1)"><tspan
         sodipodi:role="line"
         x="682.59857"
         y="-1174.2241"
         style="line-height:1.25;writing-mode:lr-tb;fill:#c0bfbc;stroke:none;stroke-width:0.203162;"
         id="tspan1021" /><tspan
         sodipodi:role="line"
         x="682.59857"
         y="-1155.7847"
         style="font-style:normal;font-variant:normal;font-weight:normal;font-stretch:normal;font-size:14px;line-height:1.16;font-family:'JetBrains Mono';-inkscape-font-specification:'JetBrains Mono';text-align:center;writing-mode:lr-tb;text-anchor:middle;fill:#c0bfbc;stroke:none;stroke-width:0.203162;"
         id="tspan1025" /><tspan
         sodipodi:role="line"
         x="682.59857"
         y="-1139.5447"
         style="font-style:normal;font-variant:normal;font-weight:normal;font-stretch:normal;font-size:14px;line-height:1.16;font-family:'JetBrains Mono';-inkscape-font-specification:'JetBrains Mono';text-align:center;writing-mode:lr-tb;text-anchor:middle;fill:#c0bfbc;stroke:none;stroke-width:0.203162;"
         id="tspan1027">Alexander Lay</tspan><tspan
         sodipodi:role="line"
         x="682.59857"
         y="-1123.3047"
         style="font-style:normal;font-variant:normal;font-weight:normal;font-stretch:normal;font-size:14px;line-height:1.16;font-family:'JetBrains Mono';-inkscape-font-specification:'JetBrains Mono';text-align:center;writing-mode:lr-tb;text-anchor:middle;fill:#c0bfbc;stroke:none;stroke-width:0.203162;"
         id="tspan1029">Andy Gong</tspan><tspan
         sodipodi:role="line"
         x="682.59857"
         y="-1107.0647"
         style="font-style:normal;font-variant:normal;font-weight:normal;font-stretch:normal;font-size:14px;line-height:1.16;font-family:'JetBrains Mono';-inkscape-font-specification:'JetBrains Mono';text-align:center;writing-mode:lr-tb;text-anchor:middle;fill:#c0bfbc;stroke:none;stroke-width:0.203162;"
         id="tspan1031">Edward Wu</tspan><tspan
         sodipodi:role="line"
         x="682.59857"
         y="-1090.8247"
         style="font-style:normal;font-variant:normal;font-weight:normal;font-stretch:normal;font-size:14px;line-height:1.16;font-family:'JetBrains Mono';-inkscape-font-specification:'JetBrains Mono';text-align:center;writing-mode:lr-tb;text-anchor:middle;fill:#c0bfbc;stroke:none;stroke-width:0.203162;"
         id="tspan1033">Evelyn Phan</tspan><tspan
         sodipodi:role="line"
         x="682.59857"
         y="-1074.5847"
         style="font-style:normal;font-variant:normal;font-weight:normal;font-stretch:normal;font-size:14px;line-height:1.16;font-family:'JetBrains Mono';-inkscape-font-specification:'JetBrains Mono';text-align:center;writing-mode:lr-tb;text-anchor:middle;fill:#c0bfbc;stroke:none;stroke-width:0.203162;"
         id="tspan1035">Leah Lim-Tran</tspan><tspan
         sodipodi:role="line"
         x="682.59857"
         y="-1058.3447"
         style="font-style:normal;font-variant:normal;font-weight:normal;font-stretch:normal;font-size:14px;line-height:1.16;font-family:'JetBrains Mono';-inkscape-font-specification:'JetBrains Mono';text-align:center;writing-mode:lr-tb;text-anchor:middle;fill:#c0bfbc;stroke:none;stroke-width:0.203162;"
         id="tspan1176">Miguel Serra</tspan><tspan
         sodipodi:role="line"
         x="682.59857"
         y="-1042.1047"
         style="font-style:normal;font-variant:normal;font-weight:normal;font-stretch:normal;font-size:14px;line-height:1.16;font-family:'JetBrains Mono';-inkscape-font-specification:'JetBrains Mono';text-align:center;writing-mode:lr-tb;text-anchor:middle;fill:#c0bfbc;stroke:none;stroke-width:0.203162;"
         id="tspan1051">Natalia Chelmecki</tspan><tspan
         sodipodi:role="line"
         x="682.59857"
         y="-1025.8647"
         style="font-style:normal;font-variant:normal;font-weight:normal;font-stretch:normal;font-size:14px;line-height:1.16;font-family:'JetBrains Mono';-inkscape-font-specification:'JetBrains Mono';text-align:center;writing-mode:lr-tb;text-anchor:middle;fill:#c0bfbc;stroke:none;stroke-width:0.203162;"
         id="tspan1216">Neo Lou</tspan><tspan
         sodipodi:role="line"
         x="682.59857"
         y="-1009.6247"
         style="font-style:normal;font-variant:normal;font-weight:normal;font-stretch:normal;font-size:14px;line-height:1.16;font-family:'JetBrains Mono';-inkscape-font-specification:'JetBrains Mono';text-align:center;writing-mode:lr-tb;text-anchor:middle;fill:#c0bfbc;stroke:none;stroke-width:0.203162;"
         id="tspan1218">Neo Wang</tspan><tspan
         sodipodi:role="line"
         x="682.59857"
         y="-993.3847"
         style="font-style:normal;font-variant:normal;font-weight:normal;font-stretch:normal;font-size:14px;line-height:1.16;font-family:'JetBrains Mono';-inkscape-font-specification:'JetBrains Mono';text-align:center;writing-mode:lr-tb;text-anchor:middle;fill:#c0bfbc;stroke:none;stroke-width:0.203162;"
         id="tspan1220">Patricia Hong</tspan><tspan
         sodipodi:role="line"
         x="682.59857"
         y="-977.14471"
         style="font-style:normal;font-variant:normal;font-weight:normal;font-stretch:normal;font-size:14px;line-height:1.16;font-family:'JetBrains Mono';-inkscape-font-specification:'JetBrains Mono';text-align:center;writing-mode:lr-tb;text-anchor:middle;fill:#c0bfbc;stroke:none;stroke-width:0.203162;"
         id="tspan1222">Sherry Zhang</tspan><tspan
         sodipodi:role="line"
         x="682.59857"
         y="-960.90472"
         style="font-style:normal;font-variant:normal;font-weight:normal;font-stretch:normal;font-size:14px;line-height:1.16;font-family:'JetBrains Mono';-inkscape-font-specification:'JetBrains Mono';text-align:center;writing-mode:lr-tb;text-anchor:middle;fill:#c0bfbc;stroke:none;stroke-width:0.203162;"
         id="tspan1224">Yeong Kwon Yun</tspan></text><text
       xml:space="preserve"
       style="font-size:20.4842px;line-height:0;font-family:'Sweden Sans';-inkscape-font-specification:'Sweden Sans';writing-mode:tb-rl;fill:#c0bfbc;stroke:none;stroke-width:0.240049;"
       x="262.2861"
       y="-1002.9427"
       id="text1090"
       transform="scale(1,-1)"><tspan
         sodipodi:role="line"
         id="tspan1088"
         x="262.2861"
         y="-1002.9427"
         style="line-height:1.25;writing-mode:lr-tb;fill:#c0bfbc;stroke:none;stroke-width:0.240049;" /><tspan
         sodipodi:role="line"
         x="262.2861"
         y="-982.69293"
         style="font-style:normal;font-variant:normal;font-weight:normal;font-stretch:normal;font-size:14px;line-height:1.25;font-family:'JetBrains Mono';-inkscape-font-specification:'JetBrains Mono';text-align:center;writing-mode:lr-tb;text-anchor:middle;fill:#c0bfbc;stroke:none;stroke-width:0.240049;"
         id="tspan1116">Alex Lehner</tspan><tspan
         sodipodi:role="line"
         x="262.2861"
         y="-965.19293"
         style="font-style:normal;font-variant:normal;font-weight:normal;font-stretch:normal;font-size:14px;line-height:1.25;font-family:'JetBrains Mono';-inkscape-font-specification:'JetBrains Mono';text-align:center;writing-mode:lr-tb;text-anchor:middle;fill:#c0bfbc;stroke:none;stroke-width:0.240049;"
         id="tspan1126">Ginny Guo</tspan><tspan
         sodipodi:role="line"
         x="262.2861"
         y="-947.69293"
         style="font-style:normal;font-variant:normal;font-weight:normal;font-stretch:normal;font-size:14px;line-height:1.25;font-family:'JetBrains Mono';-inkscape-font-specification:'JetBrains Mono';text-align:center;writing-mode:lr-tb;text-anchor:middle;fill:#c0bfbc;stroke:none;stroke-width:0.240049;"
         id="tspan1124">James Xu</tspan><tspan
         sodipodi:role="line"
         x="262.2861"
         y="-930.19293"
         style="font-style:normal;font-variant:normal;font-weight:normal;font-stretch:normal;font-size:14px;line-height:1.25;font-family:'JetBrains Mono';-inkscape-font-specification:'JetBrains Mono';text-align:center;writing-mode:lr-tb;text-anchor:middle;fill:#c0bfbc;stroke:none;stroke-width:0.240049;"
         id="tspan1112">Julia Bains</tspan><tspan
         sodipodi:role="line"
         x="262.2861"
         y="-912.69293"
         style="font-style:normal;font-variant:normal;font-weight:normal;font-stretch:normal;font-size:14px;line-height:1.25;font-family:'JetBrains Mono';-inkscape-font-specification:'JetBrains Mono';text-align:center;writing-mode:lr-tb;text-anchor:middle;fill:#c0bfbc;stroke:none;stroke-width:0.240049;"
         id="tspan1098">Katherine Le</tspan><tspan
         sodipodi:role="line"
         x="262.2861"
         y="-895.19293"
         style="font-style:normal;font-variant:normal;font-weight:normal;font-stretch:normal;font-size:14px;line-height:1.25;font-family:'JetBrains Mono';-inkscape-font-specification:'JetBrains Mono';text-align:center;writing-mode:lr-tb;text-anchor:middle;fill:#c0bfbc;stroke:none;stroke-width:0.240049;"
         id="tspan1192">Maaz Qureshi</tspan><tspan
         sodipodi:role="line"
         x="262.2861"
         y="-877.69293"
         style="font-style:normal;font-variant:normal;font-weight:normal;font-stretch:normal;font-size:14px;line-height:1.25;font-family:'JetBrains Mono';-inkscape-font-specification:'JetBrains Mono';text-align:center;writing-mode:lr-tb;text-anchor:middle;fill:#c0bfbc;stroke:none;stroke-width:0.240049;"
         id="tspan1100">Natasha Susanto</tspan><tspan
         sodipodi:role="line"
         x="262.2861"
         y="-860.19293"
         style="font-style:normal;font-variant:normal;font-weight:normal;font-stretch:normal;font-size:14px;line-height:1.25;font-family:'JetBrains Mono';-inkscape-font-specification:'JetBrains Mono';text-align:center;writing-mode:lr-tb;text-anchor:middle;fill:#c0bfbc;stroke:none;stroke-width:0.240049;"
         id="tspan1104">Stephanie Yang</tspan></text><text
       xml:space="preserve"
       style="font-size:14px;line-height:1.25;font-family:'Sweden Sans';-inkscape-font-specification:'Sweden Sans';writing-mode:tb-rl;fill:#5e5c64;stroke:none;stroke-width:0.75"
       x="401.62677"
       y="-972.9397"
       id="text1156"
       transform="scale(1,-1)"><tspan
         sodipodi:role="line"
         id="tspan1154"
         x="401.62677"
         y="-972.9397"
         style="font-style:normal;font-variant:normal;font-weight:normal;font-stretch:normal;font-size:14px;font-family:'JetBrains Mono';-inkscape-font-specification:'JetBrains Mono';text-align:center;writing-mode:lr-tb;text-anchor:middle;fill:#5e5c64;stroke:none;stroke-width:0.75" /><tspan
         sodipodi:role="line"
         x="401.62677"
         y="-955.4397"
         style="font-style:normal;font-variant:normal;font-weight:normal;font-stretch:normal;font-size:14px;font-family:'JetBrains Mono';-inkscape-font-specification:'JetBrains Mono';text-align:center;writing-mode:lr-tb;text-anchor:middle;fill:#5e5c64;stroke:none;stroke-width:0.75"
         id="tspan1166" /></text><text
       xml:space="preserve"
       style="font-size:15px;line-height:1.25;font-family:'Sweden Sans';-inkscape-font-specification:'Sweden Sans';writing-mode:tb-rl;fill:#5e5c64;stroke:none;stroke-width:0.246363"
       x="239.67119"
       y="-1011.494"
       id="text1174"
       transform="scale(1,-1)"><tspan
         sodipodi:role="line"
         id="tspan1172"
         x="239.67119"
         y="-1011.494"
         style="font-style:normal;font-variant:normal;font-weight:normal;font-stretch:normal;font-size:15px;font-family:'JetBrains Mono';-inkscape-font-specification:'JetBrains Mono';writing-mode:lr-tb;fill:#5e5c64;stroke:none;stroke-width:0.246363">Execs</tspan></text><rect
       style="opacity:0.3;fill:#c0bfbc;stroke:none;stroke-width:0.026642;stroke-linecap:round;stroke-miterlimit:6.1;stroke-dasharray:none;stroke-opacity:1"
       id="rect1188"
       width="94.208557"
       height="1.8720001"
       x="215.21684"
       y="-1005.09"
       transform="scale(1,-1)" /><text
       xml:space="preserve"
       style="font-size:16px;line-height:1.25;font-family:'Sweden Sans';-inkscape-font-specification:'Sweden Sans';writing-mode:tb-rl;fill:#77767b;stroke:none;stroke-width:0.246363;"
       x="610.84979"
       y="-1166.6104"
       id="text1198"
       transform="scale(1,-1)"><tspan
         sodipodi:role="line"
         id="tspan1196"
         x="610.84979"
         y="-1166.6104"
         style="font-style:normal;font-variant:normal;font-weight:normal;font-stretch:normal;font-size:16px;font-family:'JetBrains Mono';-inkscape-font-specification:'JetBrains Mono';writing-mode:lr-tb;fill:#77767b;stroke:none;stroke-width:0.246363;">General Members</tspan></text><rect
       style="opacity:0.3;fill:#c0bfbc;stroke:none;stroke-width:0.0321285;stroke-linecap:round;stroke-miterlimit:6.1;stroke-dasharray:none;stroke-opacity:1"
       id="rect1200"
       width="139.69067"
       height="1.8360001"
       x="613.06824"
       y="-1160.3114"
       transform="scale(1,-1)" /><text
       xml:space="preserve"
       style="font-size:15px;line-height:1.25;font-family:'Sweden Sans';-inkscape-font-specification:'Sweden Sans';writing-mode:tb-rl;fill:#77767b;stroke:none;stroke-width:0.246363;"
       x="636.70966"
       y="-908.25958"
       id="text1228"
       transform="scale(1,-1)"><tspan
         sodipodi:role="line"
         id="tspan1226"
         x="636.70966"
         y="-908.25958"
         style="font-style:normal;font-variant:normal;font-weight:normal;font-stretch:normal;font-size:15px;font-family:'JetBrains Mono';-inkscape-font-specification:'JetBrains Mono';writing-mode:lr-tb;fill:#77767b;stroke:none;stroke-width:0.246363;">Spark Pres</tspan></text><rect
       style="opacity:0.3;fill:#c0bfbc;stroke:none;stroke-width:0.026642;stroke-linecap:round;stroke-miterlimit:6.1;stroke-dasharray:none;stroke-opacity:1"
       id="rect1230"
       width="94.208557"
       height="1.8720001"
       x="634.54529"
       y="-900.2002"
       transform="scale(1,-1)" /><text
       xml:space="preserve"
       style="font-size:15px;line-height:1.25;font-family:'Sweden Sans';-inkscape-font-specification:'Sweden Sans';writing-mode:tb-rl;fill:#c0bfbc;stroke:none;stroke-width:0.246363;"
       x="681.57458"
       y="-882.34344"
       id="text1234"
       transform="scale(1,-1)"><tspan
         sodipodi:role="line"
         id="tspan1232"
         x="681.57458"
         y="-882.34344"
         style="font-style:normal;font-variant:normal;font-weight:normal;font-stretch:normal;font-size:15px;font-family:'JetBrains Mono';-inkscape-font-specification:'JetBrains Mono';text-align:center;writing-mode:lr-tb;text-anchor:middle;fill:#c0bfbc;stroke:none;stroke-width:0.246363;">Elaine Ma</tspan><tspan
         sodipodi:role="line"
         x="681.57458"
         y="-863.25256"
         style="font-style:normal;font-variant:normal;font-weight:normal;font-stretch:normal;font-size:15px;font-family:'JetBrains Mono';-inkscape-font-specification:'JetBrains Mono';text-align:center;writing-mode:lr-tb;text-anchor:middle;fill:#c0bfbc;stroke:none;stroke-width:0.246363;"
         id="tspan1236">Janelle Law</tspan></text><text
       xml:space="preserve"
       style="font-size:15px;line-height:1.25;font-family:'Sweden Sans';-inkscape-font-specification:'Sweden Sans';writing-mode:tb-rl;fill:#77767b;stroke:none;stroke-width:0.246363;"
       x="239.67119"
       y="-1011.494"
       id="text1240"
       transform="scale(1,-1)"><tspan
         sodipodi:role="line"
         id="tspan1238"
         x="239.67119"
         y="-1011.494"
         style="font-style:normal;font-variant:normal;font-weight:normal;font-stretch:normal;font-size:15px;font-family:'JetBrains Mono';-inkscape-font-specification:'JetBrains Mono';writing-mode:lr-tb;fill:#77767b;stroke:none;stroke-width:0.246363;">Execs</tspan></text><text
       xml:space="preserve"
       style="font-size:15px;line-height:1.25;font-family:'Sweden Sans';-inkscape-font-specification:'Sweden Sans';writing-mode:tb-rl;fill:#77767b;stroke:none;stroke-width:0.246363;"
       x="402.26779"
       y="-893.45526"
       id="text1254"
       transform="scale(1,-1)"><tspan
         sodipodi:role="line"
         id="tspan1252"
         x="402.26779"
         y="-893.45526"
         style="font-style:normal;font-variant:normal;font-weight:normal;font-stretch:normal;font-size:15px;font-family:'JetBrains Mono';-inkscape-font-specification:'JetBrains Mono';writing-mode:lr-tb;fill:#77767b;stroke:none;stroke-width:0.246363;">Faculty Advisor</tspan></text><rect
       style="opacity:0.3;fill:#c0bfbc;stroke:none;stroke-width:0.0322608;stroke-linecap:round;stroke-miterlimit:6.1;stroke-dasharray:none;stroke-opacity:1"
       id="rect1256"
       width="138.13606"
       height="1.8720001"
       x="400.10342"
       y="-885.39587"
       transform="scale(1,-1)" /><text
       xml:space="preserve"
       style="font-size:15px;line-height:1.25;font-family:'Sweden Sans';-inkscape-font-specification:'Sweden Sans';writing-mode:tb-rl;fill:#c0bfbc;stroke:none;stroke-width:0.246363;"
       x="473.10095"
       y="-882.34344"
       id="text1262"
       transform="scale(1,-1)"><tspan
         sodipodi:role="line"
         x="473.10095"
         y="-882.34344"
         style="font-style:normal;font-variant:normal;font-weight:normal;font-stretch:normal;font-size:15px;font-family:'JetBrains Mono';-inkscape-font-specification:'JetBrains Mono';text-align:center;writing-mode:lr-tb;text-anchor:middle;fill:#c0bfbc;stroke:none;stroke-width:0.246363;"
         id="tspan1260"></tspan><tspan
         sodipodi:role="line"
         x="473.10095"
         y="-863.25256"
         style="font-style:normal;font-variant:normal;font-weight:normal;font-stretch:normal;font-size:15px;font-family:'JetBrains Mono';-inkscape-font-specification:'JetBrains Mono';text-align:center;writing-mode:lr-tb;text-anchor:middle;fill:#c0bfbc;stroke:none;stroke-width:0.246363;"
         id="tspan1266">Alison Olechowski | MIE</tspan><tspan
         sodipodi:role="line"
         x="473.10095"
         y="-844.50256"
         style="font-style:normal;font-variant:normal;font-weight:normal;font-stretch:normal;font-size:15px;font-family:'JetBrains Mono';-inkscape-font-specification:'JetBrains Mono';text-align:center;writing-mode:lr-tb;text-anchor:middle;fill:#c0bfbc;stroke:none;stroke-width:0.246363;"
         id="tspan1268" /></text></g></svg>
